<svg width="16" height="17" viewBox="0 0 16 17" fill="none" xmlns="http://www.w3.org/2000/svg">
<path d="M3.99984 9.83334C3.63317 9.83334 3.31939 9.70267 3.0585 9.44134C2.79717 9.18045 2.6665 8.86667 2.6665 8.50001C2.6665 8.13334 2.79717 7.81934 3.0585 7.55801C3.31939 7.29712 3.63317 7.16667 3.99984 7.16667C4.3665 7.16667 4.68028 7.29712 4.94117 7.55801C5.2025 7.81934 5.33317 8.13334 5.33317 8.50001C5.33317 8.86667 5.2025 9.18045 4.94117 9.44134C4.68028 9.70267 4.3665 9.83334 3.99984 9.83334ZM7.99984 9.83334C7.63317 9.83334 7.31939 9.70267 7.0585 9.44134C6.79717 9.18045 6.6665 8.86667 6.6665 8.50001C6.6665 8.13334 6.79717 7.81934 7.0585 7.55801C7.31939 7.29712 7.63317 7.16667 7.99984 7.16667C8.3665 7.16667 8.6805 7.29712 8.94184 7.55801C9.20273 7.81934 9.33317 8.13334 9.33317 8.50001C9.33317 8.86667 9.20273 9.18045 8.94184 9.44134C8.6805 9.70267 8.3665 9.83334 7.99984 9.83334ZM11.9998 9.83334C11.6332 9.83334 11.3192 9.70267 11.0578 9.44134C10.7969 9.18045 10.6665 8.86667 10.6665 8.50001C10.6665 8.13334 10.7969 7.81934 11.0578 7.55801C11.3192 7.29712 11.6332 7.16667 11.9998 7.16667C12.3665 7.16667 12.6805 7.29712 12.9418 7.55801C13.2027 7.81934 13.3332 8.13334 13.3332 8.50001C13.3332 8.86667 13.2027 9.18045 12.9418 9.44134C12.6805 9.70267 12.3665 9.83334 11.9998 9.83334Z" fill="#171717"/>
</svg>
